<svg width="12" height="12" viewBox="0 0 12 12" fill="none" xmlns="http://www.w3.org/2000/svg">
<path d="M1.375 6C1.375 7.22663 1.86228 8.40301 2.72963 9.27037C3.59699 10.1377 4.77337 10.625 6 10.625V1.375C4.77337 1.375 3.59699 1.86228 2.72963 2.72963C1.86228 3.59699 1.375 4.77337 1.375 6Z" fill="white"/>
<path d="M6 10.625C7.22663 10.625 8.40301 10.1377 9.27037 9.27037C10.1377 8.40301 10.625 7.22663 10.625 6C10.625 4.77337 10.1377 3.59699 9.27037 2.72963C8.40301 1.86228 7.22663 1.375 6 1.375M6 10.625C4.77337 10.625 3.59699 10.1377 2.72963 9.27037C1.86228 8.40301 1.375 7.22663 1.375 6C1.375 4.77337 1.86228 3.59699 2.72963 2.72963C3.59699 1.86228 4.77337 1.375 6 1.375M6 10.625V1.375" stroke="white" stroke-width="0.75" stroke-linecap="round" stroke-linejoin="round"/>
</svg>
